<svg viewBox="0 0 240 240" fill="none" xmlns="http://www.w3.org/2000/svg">
  <!-- 日志/文档图标元素 -->
  <path d="M200 10H40C28.954 10 20 18.954 20 30V210C20 221.046 28.954 230 40 230H200C211.046 230 220 221.046 220 210V30C220 18.954 211.046 10 200 10Z" fill="white"/>
  
  <!-- 日志行 -->
  <rect x="50" y="60" width="140" height="16" rx="4" fill="#2563EB" opacity="0.7"/>
  <rect x="50" y="96" width="140" height="16" rx="4" fill="#2563EB" opacity="0.6"/>
  <rect x="50" y="132" width="140" height="16" rx="4" fill="#2563EB" opacity="0.5"/>
  <rect x="50" y="168" width="100" height="16" rx="4" fill="#2563EB" opacity="0.4"/>
  
  <!-- 放大镜元素 - 表示搜索/分析功能 -->
  <circle cx="170" cy="170" r="50" fill="#2563EB" opacity="0.2"/>
  <circle cx="170" cy="170" r="33" stroke="#2563EB" stroke-width="14"/>
  <line x1="148" y1="192" x2="128" y2="212" stroke="#2563EB" stroke-width="14" stroke-linecap="round"/>
</svg>