<?xml version="1.0" encoding="UTF-8"?>
<svg width="18px" height="18px" viewBox="0 0 18 18" version="1.1" xmlns="http://www.w3.org/2000/svg">
    <g stroke="none" stroke-width="1" fill="none" fill-rule="evenodd">
        <path d="M9,0 C4.0275,0 0,4.0275 0,9 C0,12.9825 2.57625,16.3425 6.15375,17.53875 C6.60375,17.6175 6.7725,17.3475 6.7725,17.11125 C6.7725,16.8975 6.76125,16.18875 6.76125,15.435 C4.5,15.88875 3.915,14.9175 3.735,14.4075 C3.63375,14.14875 3.195,13.3425 2.8125,13.12875 C2.4975,12.96 2.0475,12.50625 2.80125,12.495 C3.51,12.48375 4.01625,13.15125 4.185,13.42125 C4.995,14.78625 6.28875,14.44125 6.80625,14.205 C6.885,13.62 7.12125,13.21875 7.38,12.99375 C5.3775,12.76875 3.285,11.9925 3.285,8.5425 C3.285,7.56 3.63375,6.75375 4.2075,6.1125 C4.1175,5.8875 3.8025,4.965 4.2975,3.72675 C4.2975,3.72675 5.05125,3.49125 6.7725,4.65375 C7.4925,4.45125 8.2575,4.35 9.0225,4.35 C9.7875,4.35 10.5525,4.45125 11.2725,4.65375 C12.99375,3.48 13.7475,3.72675 13.7475,3.72675 C14.2425,4.965 13.9275,5.8875 13.8375,6.1125 C14.41125,6.75375 14.76,7.54875 14.76,8.5425 C14.76,11.9925 12.6562,12.7687 10.6537,12.9937 C10.98,13.275 11.2612,13.8187 11.2612,14.6812 C11.2612,15.9037 11.25,16.8075 11.25,17.1112 C11.25,17.3475 11.4187,17.6287 11.8687,17.5387 C15.4237,16.3425 18,12.9712 18,9 C18,4.0275 13.9725,0 9,0 Z" fill="#FFFFFF"></path>
    </g>
</svg>
