<?xml version="1.0" encoding="UTF-8"?>
<svg width="18px" height="18px" viewBox="0 0 18 18" version="1.1" xmlns="http://www.w3.org/2000/svg">
    <g stroke="none" stroke-width="1" fill="none" fill-rule="evenodd">
        <path d="M12.2439,5.1577 C12.0399,5.1577 11.8419,5.1837 11.6489,5.2037 C10.4319,3.6697 8.4199,2.7397 6.2439,2.7397 C2.7919,2.7397 0.0039,5.0457 0.0039,7.8697 C0.0039,9.4777 0.9299,10.9057 2.3399,11.8357 L1.7959,13.4697 L3.6799,12.3917 C4.4759,12.6777 5.3399,12.8397 6.2439,12.8397 C6.4159,12.8397 6.5799,12.8297 6.7479,12.8197 C6.5559,12.3397 6.4439,11.8237 6.4439,11.2857 C6.4439,8.7137 9.0399,6.6397 12.2439,6.6397 L12.2439,5.1577 Z M8.6439,4.9837 C9.1239,4.9837 9.5239,4.5837 9.5239,4.1037 C9.5239,3.6237 9.1239,3.2237 8.6439,3.2237 C8.1639,3.2237 7.7639,3.6237 7.7639,4.1037 C7.7639,4.5837 8.1639,4.9837 8.6439,4.9837 Z M4.4439,4.1037 C4.4439,4.5837 4.8439,4.9837 5.3239,4.9837 C5.8039,4.9837 6.2039,4.5837 6.2039,4.1037 C6.2039,3.6237 5.8039,3.2237 5.3239,3.2237 C4.8439,3.2237 4.4439,3.6237 4.4439,4.1037 Z M12.2439,15.2597 C10.4799,15.2597 8.8839,14.5697 7.7639,13.4697 L6.2439,14.3477 L6.6799,12.9917 C5.5079,12.2237 4.7639,11.0237 4.7639,9.6857 C4.7639,7.3177 7.1959,5.3997 12.2439,5.3997 C16.8919,5.3997 17.9999,7.3177 17.9999,9.6857 C17.9999,12.0537 15.5679,15.2597 12.2439,15.2597 Z M10.4439,8.6857 C10.0839,8.6857 9.7839,8.9857 9.7839,9.3457 C9.7839,9.7057 10.0839,10.0057 10.4439,10.0057 C10.8039,10.0057 11.1039,9.7057 11.1039,9.3457 C11.1039,8.9857 10.8039,8.6857 10.4439,8.6857 Z M13.7239,8.6857 C13.3639,8.6857 13.0639,8.9857 13.0639,9.3457 C13.0639,9.7057 13.3639,10.0057 13.7239,10.0057 C14.0839,10.0057 14.3839,9.7057 14.3839,9.3457 C14.3839,8.9857 14.0839,8.6857 13.7239,8.6857 Z" fill="#FFFFFF"></path>
    </g>
</svg>
